<svg xmlns="http://www.w3.org/2000/svg" xmlns:xlink="http://www.w3.org/1999/xlink" width="500" zoomAndPan="magnify" viewBox="0 0 375 374.999991" height="500" preserveAspectRatio="xMidYMid meet" version="1.0"><defs><clipPath id="d1a52c1bd1"><path d="M 102.027344 96.507812 L 272.96875 96.507812 L 272.96875 278.757812 L 102.027344 278.757812 Z M 102.027344 96.507812 " clip-rule="nonzero"/></clipPath></defs><g clip-path="url(#d1a52c1bd1)"><path fill="#ed064b" d="M 164.996094 137.03125 C 156.5625 141.121094 149.40625 147.417969 144.25 155.300781 C 138.722656 163.738281 135.800781 173.554688 135.800781 183.683594 C 135.800781 193.8125 138.722656 203.625 144.25 212.066406 C 149.40625 219.945312 156.5625 226.242188 164.996094 230.332031 C 165.582031 230.617188 166.289062 230.363281 166.558594 229.769531 L 173.300781 214.96875 C 173.558594 214.398438 173.320312 213.726562 172.761719 213.449219 C 164.875 209.515625 158.988281 202.636719 156.179688 194.519531 C 155.917969 193.765625 156.472656 192.972656 157.273438 192.972656 L 217.761719 192.972656 C 218.5625 192.972656 219.121094 193.765625 218.859375 194.519531 C 216.050781 202.636719 210.160156 209.515625 202.277344 213.449219 C 201.714844 213.726562 201.476562 214.398438 201.734375 214.96875 L 208.476562 229.769531 C 208.746094 230.363281 209.453125 230.617188 210.039062 230.332031 C 218.472656 226.242188 225.628906 219.945312 230.789062 212.066406 C 236.3125 203.625 239.234375 193.8125 239.234375 183.683594 C 239.234375 173.554688 236.3125 163.738281 230.789062 155.300781 C 225.628906 147.417969 218.472656 141.121094 210.039062 137.03125 C 209.453125 136.746094 208.746094 137 208.472656 137.59375 L 201.734375 152.394531 C 201.476562 152.964844 201.714844 153.636719 202.273438 153.914062 C 210.160156 157.847656 216.050781 164.726562 218.859375 172.84375 C 219.121094 173.597656 218.5625 174.390625 217.761719 174.390625 L 157.273438 174.390625 C 156.472656 174.390625 155.917969 173.597656 156.179688 172.84375 C 158.988281 164.726562 164.875 157.847656 172.761719 153.914062 C 173.320312 153.636719 173.558594 152.964844 173.300781 152.394531 L 166.5625 137.59375 C 166.292969 137 165.585938 136.746094 164.996094 137.03125 Z M 187.519531 249.277344 C 197.238281 249.277344 206.609375 247.234375 215.378906 243.210938 L 218.324219 241.859375 C 218.59375 241.734375 218.902344 241.714844 219.183594 241.8125 L 244.734375 250.597656 C 245.570312 250.886719 246.410156 250.167969 246.253906 249.296875 L 241.484375 222.640625 C 241.433594 222.347656 241.496094 222.042969 241.65625 221.792969 L 243.445312 219.082031 C 250.65625 208.128906 254.46875 195.378906 254.46875 182.203125 C 254.46875 146.351562 226.246094 116.980469 190.890625 115.214844 C 151.449219 113.246094 118.6875 146.070312 120.652344 185.578125 C 122.414062 221 151.730469 249.277344 187.519531 249.277344 Z M 108.742188 148.859375 C 113.046875 138.660156 119.210938 129.5 127.058594 121.636719 C 134.910156 113.769531 144.050781 107.597656 154.234375 103.28125 C 164.78125 98.8125 175.980469 96.546875 187.519531 96.546875 C 199.054688 96.546875 210.253906 98.8125 220.800781 103.28125 C 230.984375 107.597656 240.128906 113.769531 247.976562 121.636719 C 255.824219 129.5 261.988281 138.660156 266.296875 148.859375 C 270.757812 159.425781 273.019531 170.644531 273.019531 182.203125 C 273.019531 197.605469 268.933594 212.566406 261.167969 225.726562 C 261.027344 225.964844 260.976562 226.246094 261.023438 226.519531 L 270.078125 277.136719 C 270.234375 278.007812 269.398438 278.726562 268.5625 278.4375 L 220.027344 261.753906 C 219.765625 261.660156 219.480469 261.671875 219.222656 261.773438 C 209.148438 265.816406 198.503906 267.859375 187.519531 267.859375 C 175.980469 267.859375 164.78125 265.59375 154.234375 261.125 C 144.050781 256.8125 134.910156 250.636719 127.058594 242.773438 C 119.210938 234.910156 113.046875 225.75 108.742188 215.546875 C 104.277344 204.980469 102.019531 193.761719 102.019531 182.203125 C 102.019531 170.644531 104.277344 159.425781 108.742188 148.859375 " fill-opacity="1" fill-rule="nonzero"/></g></svg>