<svg xmlns="http://www.w3.org/2000/svg" xmlns:xlink="http://www.w3.org/1999/xlink" width="500" zoomAndPan="magnify" viewBox="0 0 375 374.999991" height="500" preserveAspectRatio="xMidYMid meet" version="1.0"><defs><g/><clipPath id="1c83d2c2ad"><path d="M 89.703125 41.808594 L 285.289062 41.808594 L 285.289062 250.308594 L 89.703125 250.308594 Z M 89.703125 41.808594 " clip-rule="nonzero"/></clipPath></defs><g clip-path="url(#1c83d2c2ad)"><path fill="#ffffff" d="M 161.785156 88.167969 C 152.132812 92.847656 143.941406 100.050781 138.03125 109.066406 C 131.707031 118.722656 128.363281 129.949219 128.363281 141.535156 C 128.363281 153.125 131.707031 164.351562 138.03125 174.007812 C 143.941406 183.023438 152.132812 190.226562 161.785156 194.90625 C 162.457031 195.230469 163.265625 194.941406 163.574219 194.257812 L 171.289062 177.328125 C 171.585938 176.675781 171.3125 175.90625 170.671875 175.589844 C 161.648438 171.089844 154.90625 163.222656 151.691406 153.9375 C 151.390625 153.070312 152.027344 152.164062 152.945312 152.164062 L 222.1875 152.164062 C 223.105469 152.164062 223.742188 153.070312 223.441406 153.9375 C 220.226562 163.222656 213.484375 171.089844 204.460938 175.589844 C 203.820312 175.90625 203.542969 176.675781 203.839844 177.328125 L 211.554688 194.257812 C 211.867188 194.941406 212.675781 195.230469 213.347656 194.90625 C 223 190.226562 231.195312 183.023438 237.097656 174.007812 C 243.421875 164.351562 246.765625 153.125 246.765625 141.535156 C 246.765625 129.949219 243.421875 118.722656 237.097656 109.066406 C 231.191406 100.050781 223 92.847656 213.347656 88.167969 C 212.671875 87.84375 211.863281 88.132812 211.554688 88.8125 L 203.839844 105.746094 C 203.542969 106.394531 203.816406 107.164062 204.457031 107.484375 C 213.484375 111.980469 220.226562 119.851562 223.441406 129.136719 C 223.742188 130 223.105469 130.90625 222.1875 130.90625 L 152.945312 130.90625 C 152.027344 130.90625 151.390625 130 151.691406 129.136719 C 154.90625 119.851562 161.648438 111.980469 170.671875 107.484375 C 171.3125 107.164062 171.585938 106.394531 171.289062 105.746094 L 163.578125 88.8125 C 163.265625 88.132812 162.457031 87.84375 161.785156 88.167969 Z M 187.566406 216.578125 C 198.691406 216.578125 209.421875 214.242188 219.457031 209.636719 L 222.832031 208.089844 C 223.140625 207.949219 223.492188 207.929688 223.816406 208.039062 L 253.066406 218.089844 C 254.023438 218.421875 254.980469 217.59375 254.800781 216.597656 L 249.34375 186.105469 C 249.285156 185.769531 249.355469 185.421875 249.542969 185.136719 L 251.585938 182.035156 C 259.84375 169.503906 264.207031 154.917969 264.207031 139.847656 C 264.207031 98.832031 231.898438 65.226562 191.425781 63.210938 C 146.277344 60.957031 108.769531 98.507812 111.019531 143.707031 C 113.039062 184.230469 146.597656 216.578125 187.566406 216.578125 Z M 97.386719 101.699219 C 102.316406 90.03125 109.371094 79.550781 118.359375 70.554688 C 127.34375 61.558594 137.808594 54.496094 149.464844 49.558594 C 161.539062 44.445312 174.355469 41.855469 187.566406 41.855469 C 200.773438 41.855469 213.59375 44.445312 225.667969 49.558594 C 237.324219 54.496094 247.789062 61.558594 256.773438 70.554688 C 265.761719 79.550781 272.816406 90.03125 277.746094 101.699219 C 282.851562 113.789062 285.441406 126.621094 285.441406 139.847656 C 285.441406 157.46875 280.765625 174.582031 271.875 189.632812 C 271.714844 189.910156 271.65625 190.230469 271.710938 190.542969 L 282.074219 248.445312 C 282.253906 249.445312 281.296875 250.269531 280.339844 249.9375 L 224.78125 230.847656 C 224.480469 230.746094 224.15625 230.753906 223.859375 230.875 C 212.328125 235.496094 200.140625 237.835938 187.566406 237.835938 C 174.355469 237.835938 161.539062 235.246094 149.464844 230.128906 C 137.808594 225.195312 127.34375 218.132812 118.359375 209.136719 C 109.371094 200.140625 102.316406 189.660156 97.386719 177.992188 C 92.277344 165.902344 89.691406 153.070312 89.691406 139.847656 C 89.691406 126.621094 92.277344 113.789062 97.386719 101.699219 " fill-opacity="1" fill-rule="nonzero"/></g><g fill="#ffffff" fill-opacity="1"><g transform="translate(65.043377, 301.30955)"><g><path d="M 22.015625 10.203125 L 17.796875 10.203125 C 16.691406 10.203125 15.664062 10.015625 14.71875 9.640625 C 13.78125 9.265625 12.976562 8.726562 12.3125 8.03125 C 11.65625 7.34375 11.140625 6.535156 10.765625 5.609375 C 10.390625 4.679688 10.203125 3.648438 10.203125 2.515625 L 10.203125 -9.140625 C 10.203125 -10.628906 9.769531 -11.597656 8.90625 -12.046875 C 8.050781 -12.492188 6.78125 -12.71875 5.09375 -12.71875 L 5.09375 -17.796875 C 6.78125 -17.796875 8.050781 -18.007812 8.90625 -18.4375 C 9.769531 -18.875 10.203125 -19.859375 10.203125 -21.390625 L 10.203125 -33.03125 C 10.203125 -34.164062 10.390625 -35.195312 10.765625 -36.125 C 11.140625 -37.050781 11.65625 -37.859375 12.3125 -38.546875 C 12.976562 -39.242188 13.78125 -39.785156 14.71875 -40.171875 C 15.664062 -40.566406 16.691406 -40.765625 17.796875 -40.765625 L 22.015625 -40.765625 L 22.015625 -35.6875 L 17.796875 -35.6875 C 16.835938 -35.6875 16.175781 -35.488281 15.8125 -35.09375 C 15.457031 -34.707031 15.28125 -34.019531 15.28125 -33.03125 L 15.28125 -21.390625 C 15.28125 -19.671875 14.753906 -18.273438 13.703125 -17.203125 C 12.660156 -16.140625 11.472656 -15.484375 10.140625 -15.234375 C 10.816406 -15.117188 11.457031 -14.898438 12.0625 -14.578125 C 12.675781 -14.265625 13.21875 -13.835938 13.6875 -13.296875 C 14.15625 -12.765625 14.535156 -12.140625 14.828125 -11.421875 C 15.128906 -10.710938 15.28125 -9.953125 15.28125 -9.140625 L 15.28125 2.515625 C 15.28125 3.484375 15.457031 4.160156 15.8125 4.546875 C 16.175781 4.941406 16.835938 5.140625 17.796875 5.140625 L 22.015625 5.140625 Z M 22.015625 10.203125 "/></g></g></g><g fill="#ffffff" fill-opacity="1"><g transform="translate(92.809423, 301.30955)"><g><path d="M 24.140625 0 L 18.484375 0 L 18.484375 -15.609375 L 7 -15.609375 L 7 0 L 1.34375 0 L 1.34375 -35.6875 L 7 -35.6875 L 7 -20.734375 L 18.484375 -20.734375 L 18.484375 -35.6875 L 24.140625 -35.6875 Z M 24.140625 0 "/></g></g></g><g fill="#ffffff" fill-opacity="1"><g transform="translate(120.575469, 301.30955)"><g><path d="M 16.1875 -28.796875 L 9.296875 -28.796875 L 9.296875 -35.6875 L 16.1875 -35.6875 Z M 21.390625 0 L 4.265625 0 L 4.265625 -5.09375 L 9.90625 -5.09375 L 9.90625 -20.375 L 4.265625 -20.375 L 4.265625 -25.484375 L 15.5625 -25.484375 L 15.5625 -5.09375 L 21.390625 -5.09375 Z M 21.390625 0 "/></g></g></g><g fill="#ffffff" fill-opacity="1"><g transform="translate(148.341517, 301.30955)"><g><path d="M 24.859375 -19.4375 C 24.179688 -19.769531 23.488281 -20.019531 22.78125 -20.1875 C 22.082031 -20.363281 21.28125 -20.453125 20.375 -20.453125 C 19.113281 -20.453125 17.929688 -20.265625 16.828125 -19.890625 C 15.722656 -19.515625 14.769531 -18.953125 13.96875 -18.203125 C 13.164062 -17.460938 12.539062 -16.53125 12.09375 -15.40625 C 11.65625 -14.289062 11.4375 -12.96875 11.4375 -11.4375 L 11.4375 -5.09375 L 17.140625 -5.09375 L 17.140625 0 L 0 0 L 0 -5.09375 L 5.765625 -5.09375 L 5.765625 -20.375 L 0 -20.375 L 0 -25.484375 L 11.4375 -25.484375 L 11.4375 -19.09375 C 12.363281 -21.644531 13.734375 -23.445312 15.546875 -24.5 C 17.359375 -25.5625 19.515625 -26.09375 22.015625 -26.09375 C 22.796875 -26.09375 23.613281 -26.007812 24.46875 -25.84375 C 25.332031 -25.675781 26.171875 -25.382812 26.984375 -24.96875 Z M 24.859375 -19.4375 "/></g></g></g><g fill="#ffffff" fill-opacity="1"><g transform="translate(176.10756, 301.30955)"><g><path d="M 25.265625 -25.484375 L 14.28125 4.984375 C 13.457031 7.179688 12.257812 8.691406 10.6875 9.515625 C 9.125 10.335938 7.257812 10.75 5.09375 10.75 C 4.34375 10.75 3.535156 10.675781 2.671875 10.53125 C 1.816406 10.382812 0.925781 10.140625 0 9.796875 L 1.171875 4.59375 C 1.960938 4.882812 2.6875 5.085938 3.34375 5.203125 C 4 5.328125 4.582031 5.390625 5.09375 5.390625 C 6.78125 5.390625 7.9375 4.640625 8.5625 3.140625 L 9.578125 0.6875 L -0.171875 -25.484375 L 5.71875 -25.484375 L 12.71875 -6.203125 L 19.203125 -25.484375 Z M 25.265625 -25.484375 "/></g></g></g><g fill="#fd005b" fill-opacity="1"><g transform="translate(203.875399, 301.30955)"><g><path d="M 16.1875 0 L 9.296875 0 L 9.296875 -6.890625 L 16.1875 -6.890625 Z M 16.1875 0 "/></g></g></g><g fill="#ffffff" fill-opacity="1"><g transform="translate(231.648835, 301.30955)"><g><path d="M -0.109375 -7.328125 C -0.109375 -8.828125 0.289062 -10.132812 1.09375 -11.25 C 1.894531 -12.375 2.945312 -13.304688 4.25 -14.046875 C 5.550781 -14.796875 7.046875 -15.359375 8.734375 -15.734375 C 10.421875 -16.109375 12.140625 -16.296875 13.890625 -16.296875 C 14.859375 -16.296875 15.6875 -16.273438 16.375 -16.234375 C 17.070312 -16.203125 17.773438 -16.148438 18.484375 -16.078125 L 18.484375 -17.09375 C 18.484375 -18.425781 17.96875 -19.421875 16.9375 -20.078125 C 15.90625 -20.734375 14.550781 -21.0625 12.875 -21.0625 C 11.34375 -21.0625 9.785156 -20.84375 8.203125 -20.40625 C 6.617188 -19.976562 5.113281 -19.359375 3.6875 -18.546875 L 1.390625 -22.96875 C 3.066406 -23.9375 4.867188 -24.695312 6.796875 -25.25 C 8.722656 -25.8125 10.75 -26.09375 12.875 -26.09375 C 14.257812 -26.09375 15.625 -25.9375 16.96875 -25.625 C 18.3125 -25.3125 19.515625 -24.800781 20.578125 -24.09375 C 21.640625 -23.382812 22.488281 -22.457031 23.125 -21.3125 C 23.769531 -20.175781 24.09375 -18.769531 24.09375 -17.09375 L 24.09375 0 L 18.484375 0 L 18.484375 -3.75 C 17.585938 -2.363281 16.269531 -1.285156 14.53125 -0.515625 C 12.789062 0.242188 10.921875 0.625 8.921875 0.625 C 7.679688 0.625 6.507812 0.453125 5.40625 0.109375 C 4.300781 -0.222656 3.347656 -0.722656 2.546875 -1.390625 C 1.742188 -2.066406 1.097656 -2.898438 0.609375 -3.890625 C 0.128906 -4.890625 -0.109375 -6.035156 -0.109375 -7.328125 Z M 10.359375 -4.4375 C 11.472656 -4.4375 12.515625 -4.578125 13.484375 -4.859375 C 14.460938 -5.140625 15.328125 -5.53125 16.078125 -6.03125 C 16.828125 -6.53125 17.414062 -7.132812 17.84375 -7.84375 C 18.269531 -8.5625 18.484375 -9.347656 18.484375 -10.203125 L 18.484375 -11.15625 C 17.585938 -11.300781 16.75 -11.382812 15.96875 -11.40625 C 15.1875 -11.425781 14.492188 -11.4375 13.890625 -11.4375 C 11.117188 -11.4375 9.023438 -11.070312 7.609375 -10.34375 C 6.203125 -9.613281 5.5 -8.707031 5.5 -7.625 C 5.5 -5.5 7.117188 -4.4375 10.359375 -4.4375 Z M 10.359375 -4.4375 "/></g></g></g><g fill="#ffffff" fill-opacity="1"><g transform="translate(259.414881, 301.30955)"><g><path d="M 16.1875 -28.796875 L 9.296875 -28.796875 L 9.296875 -35.6875 L 16.1875 -35.6875 Z M 21.390625 0 L 4.265625 0 L 4.265625 -5.09375 L 9.90625 -5.09375 L 9.90625 -20.375 L 4.265625 -20.375 L 4.265625 -25.484375 L 15.5625 -25.484375 L 15.5625 -5.09375 L 21.390625 -5.09375 Z M 21.390625 0 "/></g></g></g><g fill="#ffffff" fill-opacity="1"><g transform="translate(287.180927, 301.30955)"><g><path d="M 3.46875 5.140625 L 7.6875 5.140625 C 8.65625 5.140625 9.316406 4.941406 9.671875 4.546875 C 10.023438 4.160156 10.203125 3.484375 10.203125 2.515625 L 10.203125 -9.25 C 10.203125 -10.0625 10.351562 -10.820312 10.65625 -11.53125 C 10.957031 -12.25 11.335938 -12.875 11.796875 -13.40625 C 12.265625 -13.945312 12.800781 -14.375 13.40625 -14.6875 C 14.019531 -15.007812 14.664062 -15.226562 15.34375 -15.34375 C 13.988281 -15.59375 12.789062 -16.25 11.75 -17.3125 C 10.71875 -18.382812 10.203125 -19.78125 10.203125 -21.5 L 10.203125 -33.140625 C 10.203125 -34.128906 10.023438 -34.800781 9.671875 -35.15625 C 9.316406 -35.507812 8.65625 -35.6875 7.6875 -35.6875 L 3.46875 -35.6875 L 3.46875 -40.765625 L 7.6875 -40.765625 C 8.800781 -40.765625 9.820312 -40.578125 10.75 -40.203125 C 11.675781 -39.835938 12.476562 -39.316406 13.15625 -38.640625 C 13.832031 -37.960938 14.351562 -37.160156 14.71875 -36.234375 C 15.09375 -35.304688 15.28125 -34.273438 15.28125 -33.140625 L 15.28125 -21.5 C 15.28125 -19.96875 15.707031 -18.984375 16.5625 -18.546875 C 17.425781 -18.117188 18.695312 -17.90625 20.375 -17.90625 L 20.375 -12.828125 C 18.695312 -12.828125 17.425781 -12.601562 16.5625 -12.15625 C 15.707031 -11.707031 15.28125 -10.738281 15.28125 -9.25 L 15.28125 2.515625 C 15.28125 3.648438 15.09375 4.679688 14.71875 5.609375 C 14.351562 6.535156 13.832031 7.34375 13.15625 8.03125 C 12.476562 8.726562 11.675781 9.265625 10.75 9.640625 C 9.820312 10.015625 8.800781 10.203125 7.6875 10.203125 L 3.46875 10.203125 Z M 3.46875 5.140625 "/></g></g></g></svg>